<svg version="1.1" viewBox="0.0 0.0 480.0 480.0" fill="none" stroke="none" stroke-linecap="square" stroke-miterlimit="10" xmlns:xlink="http://www.w3.org/1999/xlink" xmlns="http://www.w3.org/2000/svg"><clipPath id="g2c9e0500adf_0_4.0"><path d="m0 0l480.0 0l0 480.0l-480.0 0l0 -480.0z" clip-rule="nonzero"/></clipPath><g clip-path="url(#g2c9e0500adf_0_4.0)"><path fill="#000000" fill-opacity="0.0" d="m0 0l480.0 0l0 480.0l-480.0 0z" fill-rule="evenodd"/><path fill="#000000" fill-opacity="0.0" d="m10.944881 20.220472l458.11023 0l0 439.55908l-458.11023 0z" fill-rule="evenodd"/><path fill="#0b5394" d="m235.25365 154.33296l0 -38.765625l-198.71875 0l0 38.765625l75.0 0l0 207.68748l47.71875 0l0 -207.68748l76.0 0z" fill-rule="nonzero"/><path fill="#6fa8dc" d="m383.375 362.02045l42.640625 0l0 -183.14061l-47.21875 0l0 128.46873q-2.203125 4.40625 -5.25 7.96875q-3.046875 3.546875 -6.9375 6.078125q-4.5625 2.875 -10.578125 4.40625q-6.015625 1.515625 -13.453125 1.515625q-8.296875 0 -14.0625 -2.03125q-5.75 -2.03125 -9.296875 -6.765625q-3.5625 -4.578125 -5.171875 -12.1875q-1.59375 -7.625 -1.59375 -18.796875l0 -108.656235l-47.0625 0l0 108.32811q0 20.8125 4.65625 35.625q4.65625 14.8125 13.109375 24.296875q8.46875 9.640625 20.3125 14.046875q11.859375 4.390625 26.078125 4.390625q15.5625 0 28.671875 -7.78125q13.125 -7.78125 22.4375 -21.5l2.71875 25.734375z" fill-rule="nonzero"/></g></svg>